<svg xmlns="http://www.w3.org/2000/svg" xmlns:xlink="http://www.w3.org/1999/xlink" width="192" height="192" viewBox="-0.5 0 192 192">
  <defs>
    <style>
      .cls-1 {
      fill: #fa4600;
      fill-rule: evenodd;
      }
    </style>
    <clipPath id="clip-path">
      <rect width="191" height="192"/>
    </clipPath>
  </defs>
  <g clip-path="url(#clip-path)">
    <path id="Color_Fill_1" data-name="Color Fill 1" class="cls-1" d="M73.958,128.167a4.472,4.472,0,0,1,2.087.381,2.725,2.725,0,0,1,1.238,2.637A2.428,2.428,0,0,1,76,133.616a5.156,5.156,0,0,1-2.17.352H68.977v-5.8h4.981Zm0.938-3.75H64.568v21.592h4.409v-8.467h4.406a3.638,3.638,0,0,1,2.57.689,4.079,4.079,0,0,1,.714,2.754l0.029,2.006a10.626,10.626,0,0,0,.19,1.861q0.088,0.44.293,1.157h4.98v-0.542a1.8,1.8,0,0,1-.833-1.23,10.928,10.928,0,0,1-.119-2.007v-1.451a7.1,7.1,0,0,0-.623-3.376,4.037,4.037,0,0,0-2.117-1.707,4.336,4.336,0,0,0,2.563-2.1,6.467,6.467,0,0,0,.776-3.024,6.056,6.056,0,0,0-.4-2.271,6.717,6.717,0,0,0-1.086-1.816,5.334,5.334,0,0,0-2.021-1.509,9.4,9.4,0,0,0-3.407-.557h0Zm20.312,3.75a8.147,8.147,0,0,1,2.552.337,1.934,1.934,0,0,1,1.16,1.992,2.039,2.039,0,0,1-.877,1.9,4.334,4.334,0,0,1-2.283.535H90.51v-4.761h4.7Zm0.618,8.335a5.467,5.467,0,0,1,2.158.366,2.319,2.319,0,0,1,1.376,2.315,2.718,2.718,0,0,1-1.419,2.695,5.092,5.092,0,0,1-2.187.381H90.51V136.5h5.314Zm0.813-12.085H86.2v21.592h9.729a14.977,14.977,0,0,0,3.051-.293,5.945,5.945,0,0,0,3.968-2.783,6.315,6.315,0,0,0,.962-3.443,5.722,5.722,0,0,0-.841-3.164,4.815,4.815,0,0,0-2.495-1.9,5.148,5.148,0,0,0,1.647-1.23,4.807,4.807,0,0,0,1-3.179,5.49,5.49,0,0,0-.991-3.3q-1.647-2.241-5.6-2.3h0Zm30.113,6.738a7.765,7.765,0,0,0-2.864-5.207,9.975,9.975,0,0,0-6.614-2.087,9.838,9.838,0,0,0-7.632,3.162,11.981,11.981,0,0,0-2.886,8.4,11.331,11.331,0,0,0,2.857,8.169,9.134,9.134,0,0,0,7.031,2.972,8.277,8.277,0,0,0,4.395-1.094,10.348,10.348,0,0,0,2.343-2.158l0.455,2.695h2.988V134.422H117.83v3.6h5a5.63,5.63,0,0,1-1.787,3.414,5.359,5.359,0,0,1-3.721,1.3,5.968,5.968,0,0,1-4.131-1.652q-1.817-1.651-1.816-5.629,0-3.947,1.677-5.913a5.38,5.38,0,0,1,4.285-1.967,6.137,6.137,0,0,1,2.475.484,4.228,4.228,0,0,1,2.5,3.09h4.439ZM9.5,164.167a4.472,4.472,0,0,1,2.087.381,2.725,2.725,0,0,1,1.238,2.637,2.428,2.428,0,0,1-1.28,2.431,5.157,5.157,0,0,1-2.17.352H4.517v-5.8H9.5Zm0.938-3.75H0.108v21.592H4.517v-8.467H8.923a3.638,3.638,0,0,1,2.57.689,4.078,4.078,0,0,1,.714,2.754l0.029,2.006a10.626,10.626,0,0,0,.191,1.861q0.088,0.44.293,1.157H17.7v-0.542a1.8,1.8,0,0,1-.833-1.23,10.916,10.916,0,0,1-.119-2.007v-1.451a7.1,7.1,0,0,0-.623-3.376,4.037,4.037,0,0,0-2.117-1.707,4.337,4.337,0,0,0,2.563-2.1,6.467,6.467,0,0,0,.776-3.024,6.056,6.056,0,0,0-.4-2.271,6.722,6.722,0,0,0-1.086-1.816,5.335,5.335,0,0,0-2.021-1.509,9.394,9.394,0,0,0-3.407-.557h0Zm27.2,0H21.8v21.592H38.164v-3.882H26.211v-5.552H36.7v-3.75H26.211V164.24H37.637v-3.823Zm3.97,21.592h4.2v-15.32l8.79,15.32h4.511V160.417h-4.2v15.056l-8.571-15.056h-4.73v21.592ZM72.9,178.786a5.215,5.215,0,0,1-4.277-1.977,10.706,10.706,0,0,1,0-11.25,5.213,5.213,0,0,1,4.277-1.978,5.147,5.147,0,0,1,4.255,1.985,10.821,10.821,0,0,1,0,11.243,5.154,5.154,0,0,1-4.255,1.977h0Zm10.342-7.6q0-5.932-3.267-8.906-2.447-2.52-7.075-2.52t-7.075,2.52q-3.281,2.973-3.281,8.906,0,5.816,3.281,8.906,2.446,2.52,7.075,2.52t7.075-2.52q3.266-3.09,3.267-8.906h0Zm11.345,5.625L89.9,160.417H85.076l7.3,21.592H96.64L104,160.417H99.314Zm18.574-11.455,2.727,8.5h-5.529Zm-10.213,16.655h4.72l1.463-4.439h7.952l1.425,4.439H123.4l-7.639-21.592h-5.105Zm19.185-21.592v3.823h6.489v17.769h4.541V164.24h6.46v-3.823h-17.49Zm24.243,0H141.89v21.592h4.482V160.417Zm13.77,18.369a5.218,5.218,0,0,1-4.278-1.977,10.71,10.71,0,0,1,0-11.25,5.216,5.216,0,0,1,4.278-1.978,5.147,5.147,0,0,1,4.255,1.985,10.82,10.82,0,0,1,0,11.243,5.154,5.154,0,0,1-4.255,1.977h0Zm10.342-7.6q0-5.932-3.267-8.906-2.446-2.52-7.075-2.52t-7.075,2.52q-3.282,2.973-3.282,8.906,0,5.816,3.282,8.906,2.445,2.52,7.075,2.52t7.075-2.52q3.266-3.09,3.267-8.906h0Zm3.369,10.825h4.2v-15.32l8.79,15.32h4.511V160.417h-4.205v15.056l-8.571-15.056h-4.729v21.592Z"/>
    <path id="Logo_1" data-name="Logo 1" class="cls-1" d="M44,5H71V110H44V5Zm77,0h27V110H121V5ZM82,27l28,1v82H82V27Z"/>
  </g>
</svg>
